<mxfile host="app.diagrams.net" modified="2021-10-06T06:31:06.968Z" agent="5.0 (Macintosh; Intel Mac OS X 10_15_7) AppleWebKit/537.36 (KHTML, like Gecko) Chrome/94.0.4606.61 Safari/537.36" etag="dzW8sM51hlGQ-bpTcq6e" version="15.2.9" type="github">
  <diagram id="LjY5orCp5_SFupNx-PLS" name="Page-1">
    <mxGraphModel dx="1426" dy="921" grid="1" gridSize="10" guides="1" tooltips="1" connect="1" arrows="1" fold="1" page="1" pageScale="1" pageWidth="827" pageHeight="1169" math="0" shadow="0">
      <root>
        <mxCell id="0" />
        <mxCell id="1" parent="0" />
        <mxCell id="tvtmCS9aw7XIIvxJIFJg-1" value="ELK" style="swimlane;startSize=20;horizontal=1;containerType=tree;newEdgeStyle={&quot;edgeStyle&quot;:&quot;elbowEdgeStyle&quot;,&quot;startArrow&quot;:&quot;none&quot;,&quot;endArrow&quot;:&quot;none&quot;};" vertex="1" parent="1">
          <mxGeometry x="270" y="360" width="280" height="220" as="geometry" />
        </mxCell>
        <mxCell id="tvtmCS9aw7XIIvxJIFJg-2" value="" style="edgeStyle=elbowEdgeStyle;elbow=vertical;startArrow=none;endArrow=none;rounded=0;" edge="1" parent="tvtmCS9aw7XIIvxJIFJg-1" source="tvtmCS9aw7XIIvxJIFJg-4" target="tvtmCS9aw7XIIvxJIFJg-5">
          <mxGeometry relative="1" as="geometry" />
        </mxCell>
        <mxCell id="tvtmCS9aw7XIIvxJIFJg-3" value="" style="edgeStyle=elbowEdgeStyle;elbow=vertical;startArrow=none;endArrow=none;rounded=0;" edge="1" parent="tvtmCS9aw7XIIvxJIFJg-1" source="tvtmCS9aw7XIIvxJIFJg-4" target="tvtmCS9aw7XIIvxJIFJg-6">
          <mxGeometry relative="1" as="geometry" />
        </mxCell>
        <UserObject label="Elasticsearch" treeRoot="1" id="tvtmCS9aw7XIIvxJIFJg-4">
          <mxCell style="whiteSpace=wrap;html=1;align=center;treeFolding=1;treeMoving=1;newEdgeStyle={&quot;edgeStyle&quot;:&quot;elbowEdgeStyle&quot;,&quot;startArrow&quot;:&quot;none&quot;,&quot;endArrow&quot;:&quot;none&quot;};" vertex="1" parent="tvtmCS9aw7XIIvxJIFJg-1">
            <mxGeometry x="80" y="40" width="120" height="60" as="geometry" />
          </mxCell>
        </UserObject>
        <mxCell id="tvtmCS9aw7XIIvxJIFJg-5" value="Logstash" style="whiteSpace=wrap;html=1;align=center;verticalAlign=middle;treeFolding=1;treeMoving=1;newEdgeStyle={&quot;edgeStyle&quot;:&quot;elbowEdgeStyle&quot;,&quot;startArrow&quot;:&quot;none&quot;,&quot;endArrow&quot;:&quot;none&quot;};" vertex="1" parent="tvtmCS9aw7XIIvxJIFJg-1">
          <mxGeometry x="20" y="140" width="100" height="60" as="geometry" />
        </mxCell>
        <mxCell id="tvtmCS9aw7XIIvxJIFJg-6" value="Kibana" style="whiteSpace=wrap;html=1;align=center;verticalAlign=middle;treeFolding=1;treeMoving=1;newEdgeStyle={&quot;edgeStyle&quot;:&quot;elbowEdgeStyle&quot;,&quot;startArrow&quot;:&quot;none&quot;,&quot;endArrow&quot;:&quot;none&quot;};" vertex="1" parent="tvtmCS9aw7XIIvxJIFJg-1">
          <mxGeometry x="160" y="140" width="100" height="60" as="geometry" />
        </mxCell>
      </root>
    </mxGraphModel>
  </diagram>
</mxfile>
